<?xml version="1.0" encoding="utf-8"?>
<!-- Generator: Adobe Illustrator 16.0.3, SVG Export Plug-In . SVG Version: 6.00 Build 0)  -->
<!DOCTYPE svg PUBLIC "-//W3C//DTD SVG 1.1//EN" "http://www.w3.org/Graphics/SVG/1.1/DTD/svg11.dtd">
<svg version="1.1" xmlns="http://www.w3.org/2000/svg" xmlns:xlink="http://www.w3.org/1999/xlink" x="0px" y="0px"
	 width="58.1377px" height="60px" viewBox="0 0 58.1377 60" enable-background="new 0 0 58.1377 60" xml:space="preserve">
<g id="Layer_1">
</g>
<g id="Layer_2">
	<g>
		<g>
			<path d="M7.92627,60L0,59.99072l0.00781-9.6748c0-9.0459,12.49512-15.86768,29.06494-15.86768S58.1377,41.27002,58.1377,50.31592
				v9.6792h-7.92627v-9.6792c0-3.1626-8.43018-7.94385-21.13867-7.94385c-12.70801,0-21.13867,4.78125-21.13867,7.94385L7.92627,60z
				"/>
		</g>
		<g>
			<path d="M29.07373,31.69629c-8.74072,0-15.85254-7.10938-15.85254-15.84766C13.22119,7.10986,20.33301,0,29.07373,0
				s15.85254,7.10986,15.85254,15.84863C44.92627,24.58691,37.81445,31.69629,29.07373,31.69629z M29.07373,7.92432
				c-4.37061,0-7.92627,3.5542-7.92627,7.92432c0,4.36914,3.55566,7.92432,7.92627,7.92432S37,20.21777,37,15.84863
				C37,11.47852,33.44434,7.92432,29.07373,7.92432z"/>
		</g>
	</g>
</g>
</svg>
