<?xml version="1.0" encoding="utf-8"?>
<!-- Generator: Adobe Illustrator 16.0.3, SVG Export Plug-In . SVG Version: 6.00 Build 0)  -->
<!DOCTYPE svg PUBLIC "-//W3C//DTD SVG 1.1//EN" "http://www.w3.org/Graphics/SVG/1.1/DTD/svg11.dtd">
<svg version="1.1" xmlns="http://www.w3.org/2000/svg" xmlns:xlink="http://www.w3.org/1999/xlink" x="0px" y="0px"
	 width="59.63672px" height="60px" viewBox="0 0 59.63672 60" enable-background="new 0 0 59.63672 60" xml:space="preserve">
<g id="Layer_1">
</g>
<g id="Layer_2">
	<g>
		<path d="M54.30957,60.0127c-0.14014-1.41895-0.65332-5.2627-2.36572-9.50439c-2.40234-5.94824-9.02002-8.48535-22.12598-8.48535
			S10.09521,44.56006,7.69238,50.5083c-1.7124,4.2417-2.2251,8.08545-2.36572,9.50439L0,60.00488
			c0.02197-1.70557,0.16943-6.5874,1.09619-8.7832c3.01367-10.23779,13.47363-16.07227,28.72168-16.07227
			s25.70898,5.83447,28.69922,16.00635c0.94629,2.25195,1.0957,7.14209,1.11963,8.84912L54.30957,60.0127z"/>
		<path d="M29.81787,31.12988c-8.58105,0-15.56348-6.98291-15.56348-15.56494C14.25439,6.9834,21.23682,0,29.81787,0
			c8.58203,0,15.56396,6.9834,15.56396,15.56494C45.38184,24.14697,38.3999,31.12988,29.81787,31.12988z M29.81787,6.87354
			c-4.79102,0.00098-8.68994,3.8999-8.68994,8.69141s3.89893,8.69141,8.68994,8.69189
			c4.79199-0.00049,8.69092-3.90039,8.69092-8.69189S34.60986,6.87451,29.81787,6.87354L29.81787,6.87354z"/>
	</g>
</g>
</svg>
