<?xml version="1.0" encoding="utf-8"?>
<!-- Generator: Adobe Illustrator 16.0.3, SVG Export Plug-In . SVG Version: 6.00 Build 0)  -->
<!DOCTYPE svg PUBLIC "-//W3C//DTD SVG 1.1//EN" "http://www.w3.org/Graphics/SVG/1.1/DTD/svg11.dtd">
<svg version="1.1" xmlns="http://www.w3.org/2000/svg" xmlns:xlink="http://www.w3.org/1999/xlink" x="0px" y="0px"
	 width="65.27051px" height="60px" viewBox="0 0 65.27051 60" enable-background="new 0 0 65.27051 60" xml:space="preserve">
<g id="Layer_1">
</g>
<g id="Layer_2">
	<path d="M21.12158,44.55078L12.04834,7.05566H3.73535c-1.83936,0-3.33545-1.49658-3.33545-3.33643
		c0-1.83936,1.49609-3.33545,3.33545-3.33545h10.93701c1.5459,0,2.87988,1.04883,3.24268,2.55127l8.46338,34.94434h24.10938
		l8.3208-22.24365c0.48584-1.29688,1.74121-2.16748,3.12402-2.16748c0.39746,0,0.7915,0.07129,1.16895,0.2124
		c0.83398,0.31152,1.49658,0.93066,1.86768,1.74023c0.36914,0.81055,0.40039,1.71729,0.0874,2.55127L55.1709,44.55078H21.12158z"/>
	<path d="M25.8042,60.021c-3.33838,0-6.05518-2.71631-6.05518-6.05469c0-3.33789,2.7168-6.05322,6.05518-6.05322
		c3.33887,0,6.05469,2.71533,6.05469,6.05322C31.85889,57.30469,29.14307,60.021,25.8042,60.021z"/>
	<path d="M50.55713,60.021c-3.33887,0-6.05566-2.71631-6.05566-6.05469c0-3.33789,2.7168-6.05322,6.05566-6.05322
		s6.05566,2.71533,6.05566,6.05322C56.61279,57.30469,53.896,60.021,50.55713,60.021z"/>
	<g>
		<polygon points="44.69678,12.7251 44.69678,0.93457 34.76758,0.93457 34.76758,12.7251 26.73389,12.7251 39.73193,28.06738 
			52.73096,12.7251 		"/>
	</g>
</g>
</svg>
