<?xml version="1.0" encoding="utf-8"?>
<!-- Generator: Adobe Illustrator 16.0.3, SVG Export Plug-In . SVG Version: 6.00 Build 0)  -->
<!DOCTYPE svg PUBLIC "-//W3C//DTD SVG 1.1//EN" "http://www.w3.org/Graphics/SVG/1.1/DTD/svg11.dtd">
<svg version="1.1" xmlns="http://www.w3.org/2000/svg" xmlns:xlink="http://www.w3.org/1999/xlink" x="0px" y="0px"
	 width="64.31396px" height="60px" viewBox="0 0 64.31396 60" enable-background="new 0 0 64.31396 60" xml:space="preserve">
<g id="Layer_1">
</g>
<g id="Layer_2">
	<g>
		<g>
			<path d="M51.16113,44.60938H23.51367c-2.05957,0-3.85107-1.40918-4.33594-3.41113L11.36133,8.92188H4.46094
				C1.99756,8.92188,0,6.92432,0,4.46094S1.99756,0,4.46094,0h10.40918c2.05957,0,3.85156,1.40918,4.33594,3.41113l7.81641,32.27588
				h21.04443l7.60742-20.33545c0.86133-2.30664,3.43164-3.47949,5.74023-2.61475c2.30811,0.86279,3.47852,3.43311,2.61523,5.74072
				l-8.69092,23.2334C54.6875,43.45361,53.02246,44.60938,51.16113,44.60938z"/>
		</g>
		<g>
			<circle cx="25.46509" cy="53.7627" r="6.25562"/>
		</g>
		<g>
			<circle cx="49.02441" cy="53.7627" r="6.25586"/>
		</g>
		<g>
			<polygon points="44.2627,13.03174 44.2627,1.81006 33.18018,1.81006 33.18018,13.03174 26.34961,13.03174 38.72119,25.4043 
				51.09375,13.03174 			"/>
		</g>
	</g>
</g>
</svg>
