<?xml version="1.0" encoding="utf-8"?>
<!-- Generator: Adobe Illustrator 16.0.3, SVG Export Plug-In . SVG Version: 6.00 Build 0)  -->
<!DOCTYPE svg PUBLIC "-//W3C//DTD SVG 1.1//EN" "http://www.w3.org/Graphics/SVG/1.1/DTD/svg11.dtd">
<svg version="1.1" xmlns="http://www.w3.org/2000/svg" xmlns:xlink="http://www.w3.org/1999/xlink" x="0px" y="0px"
	 width="63.48389px" height="60px" viewBox="0 0 63.48389 60" enable-background="new 0 0 63.48389 60" xml:space="preserve">
<g id="Layer_1">
</g>
<g id="Layer_2">
	<g>
		<path d="M20.10791,43.46191L11.34082,7.23047H3.62305C1.62549,7.23047,0,5.60498,0,3.60693
			c0-1.99756,1.62549-3.62305,3.62305-3.62305h10.56836c1.67822,0,3.12744,1.14014,3.52148,2.771l8.104,33.46045h22.70459
			l7.94336-21.23389c0.52783-1.40869,1.89063-2.35449,3.39307-2.35449c0.43311,0,0.86084,0.07813,1.26953,0.23047
			c0.90674,0.33936,1.62646,1.01074,2.02832,1.89063c0.40186,0.88135,0.43555,1.86523,0.0957,2.77197l-9.64941,25.94189H20.10791z"
			/>
		<g>
			<circle cx="24.94751" cy="53.66016" r="6.35083"/>
		</g>
		<g>
			<circle cx="48.86597" cy="53.66016" r="6.35132"/>
		</g>
		<g>
			<polygon points="43.20361,12.30908 43.20361,0.91602 33.60889,0.91602 33.60889,12.30908 25.8457,12.30908 38.40576,27.13379 
				50.9668,12.30908 			"/>
		</g>
	</g>
</g>
</svg>
