<?xml version="1.0" encoding="utf-8"?>
<!-- Generator: Adobe Illustrator 16.0.3, SVG Export Plug-In . SVG Version: 6.00 Build 0)  -->
<!DOCTYPE svg PUBLIC "-//W3C//DTD SVG 1.1//EN" "http://www.w3.org/Graphics/SVG/1.1/DTD/svg11.dtd">
<svg version="1.1" xmlns="http://www.w3.org/2000/svg" xmlns:xlink="http://www.w3.org/1999/xlink" x="0px" y="0px"
	 width="60.01221px" height="60px" viewBox="0 0 60.01221 60" enable-background="new 0 0 60.01221 60" xml:space="preserve">
<g id="Layer_1">
</g>
<g id="Layer_2">
	<path d="M0,55.31543l14.98438-14.98438l-0.3623-0.49854c-3.15234-4.33008-4.81836-9.42285-4.81836-14.72705
		C9.80371,11.26172,21.06543,0,34.90869,0c13.84229,0,25.10352,11.26172,25.10352,25.10547
		c0,13.84277-11.26123,25.10449-25.10352,25.10449c-5.30518,0-10.39844-1.66699-14.729-4.82031l-0.49854-0.3623L4.69678,60.01221
		L0,55.31543z M34.90869,6.64209c-10.18066,0-18.46338,8.28271-18.46338,18.46338c0,10.18018,8.28271,18.4624,18.46338,18.4624
		c10.17969,0,18.46143-8.28223,18.46143-18.4624C53.37012,14.9248,45.08838,6.64209,34.90869,6.64209z"/>
</g>
</svg>
