<?xml version="1.0" encoding="utf-8"?>
<!-- Generator: Adobe Illustrator 16.0.3, SVG Export Plug-In . SVG Version: 6.00 Build 0)  -->
<!DOCTYPE svg PUBLIC "-//W3C//DTD SVG 1.1//EN" "http://www.w3.org/Graphics/SVG/1.1/DTD/svg11.dtd">
<svg version="1.1" xmlns="http://www.w3.org/2000/svg" xmlns:xlink="http://www.w3.org/1999/xlink" x="0px" y="0px"
	 width="59.99658px" height="60px" viewBox="0 0 59.99658 60" enable-background="new 0 0 59.99658 60" xml:space="preserve">
<g id="Layer_1">
</g>
<g id="Layer_2">
	<path d="M34.90576,0C21.07129,0,9.81445,11.25684,9.81445,25.0918c0,5.50293,1.80127,10.58105,4.81592,14.7207L0,54.44287
		l5.55371,5.55371l14.62988-14.63086c4.14111,3.01611,9.21924,4.81738,14.72217,4.81738
		c13.83496,0,25.09082-11.25586,25.09082-25.09131C59.99658,11.25684,48.74072,0,34.90576,0z M34.90576,42.32861
		c-9.50391,0-17.23682-7.73193-17.23682-17.23682c0-9.50439,7.73291-17.2373,17.23682-17.2373
		c9.50439,0,17.23633,7.73291,17.23633,17.2373C52.14209,34.59668,44.41016,42.32861,34.90576,42.32861z"/>
</g>
</svg>
