<?xml version="1.0" encoding="utf-8"?>
<!-- Generator: Adobe Illustrator 16.0.3, SVG Export Plug-In . SVG Version: 6.00 Build 0)  -->
<!DOCTYPE svg PUBLIC "-//W3C//DTD SVG 1.1//EN" "http://www.w3.org/Graphics/SVG/1.1/DTD/svg11.dtd">
<svg version="1.1" id="Layer_1" xmlns="http://www.w3.org/2000/svg" xmlns:xlink="http://www.w3.org/1999/xlink" x="0px" y="0px"
	 width="200px" height="82.00098px" viewBox="0 0 200 82.00098" enable-background="new 0 0 200 82.00098" xml:space="preserve">
<path fill-rule="evenodd" clip-rule="evenodd" d="M199.1958,0c-0.00391,0.82129-0.01172,9.40625-0.01172,9.59863
	c-1.05713,0.05762-2.08008-0.11426-3.13428-0.06836c0,8.68457,0,17.35254,0,26.0752c1.02686-0.04004,2.05078-0.0791,3.10498-0.12012
	c0,3.19531,0,6.36328,0,9.53223c-0.31934,0.0957-13.15625,0.14258-14.43213,0.04785
	c-3.61621-7.24609-7.24219-14.51465-10.86914-21.78418c-0.0332,0.00684-0.06592,0.0127-0.09961,0.01855
	c-0.00146,1.19238-0.00049,20.52344-0.00049,21.75684c-4.87061,0-9.70654,0-14.56592,0c0-3.18652,0-6.35254,0-9.57031
	c1.04639,0.04102,2.07129,0.08105,3.12402,0.12109c0-8.7002,0-17.36816,0-26.09766c-1.03711,0.03906-2.0625,0.07617-3.14746,0.11719
	c0-0.2002-0.01904-9.45898-0.02832-9.62695c4.84766,0,9.6958,0,14.54395,0c0.04443,0.11719,7.24707,14.58887,10.8042,21.70801
	c0.05322,0.10742,0.12158,0.20605,0.18262,0.30957c0.02344-0.00586,0.04736-0.0127,0.07031-0.01855c0-7.33398,0-14.66602,0-21.99902
	C189.55615,0,194.37646,0,199.1958,0z"/>
<path fill-rule="evenodd" clip-rule="evenodd" d="M107.08252,0c0.49072,0.05469,0.98096,0.11523,1.47266,0.16504
	c0.87842,0.09082,1.73193,0.2793,2.54688,0.63184c2.22998,0.96094,3.60156,2.63281,4.14014,4.99707
	c0.22803,0.99805,0.34912,2.00977,0.35498,3.03223c0.00879,1.71582,0.0083,3.42969,0.00391,5.14551
	c-0.00244,0.91406-0.14258,1.80664-0.41504,2.67773c-0.55078,1.76563-1.64746,3.0791-3.26416,3.96484
	c-0.75,0.41113-1.54736,0.69824-2.37598,0.9043c-0.13525,0.03418-0.27148,0.07129-0.48633,0.12695
	c0.20801,0.08398,0.34961,0.13379,0.48779,0.19434c0.73877,0.32324,1.49902,0.60352,2.21045,0.98047
	c2.10303,1.11426,3.28906,2.89746,3.6499,5.22949c0.11133,0.72559,0.17529,1.46387,0.18604,2.19727
	c0.02637,1.74512,0.01416,3.48828,0.00537,5.23242c-0.00684,1.34961-0.16846,2.68164-0.49854,3.99512
	c-0.70557,2.80469-2.47754,4.50684-5.2749,5.17285c-0.99609,0.23633-2.00586,0.36816-3.02637,0.41895
	c-0.45264,0.02246-25.53662,0.02246-25.73828,0.02246c0-3.21484,0-6.38281,0-9.60352
	c1.02734,0.04199,2.03955,0.08203,3.04688,0.12109c0.09668-0.30859,0.12061-25.56641,0.02051-26.09766
	c-1.00439,0.03906-2.01758,0.07715-3.0542,0.11719C81.05957,9.5,81.05029,0.07031,81.05664,0C89.73145,0,98.40723,0,107.08252,0z
	 M96.3208,26.20605c0,3.15039,0,6.26074,0,9.38281c2.39941,0,4.77051,0,7.15039,0c0-3.1416,0-6.25195,0-9.38281
	C101.08105,26.20605,98.71875,26.20605,96.3208,26.20605z M96.32227,9.52441c0,2.86328,0,5.67578,0,8.48438
	c0.63477,0.08203,6.84619,0.05176,7.14697-0.03125c0-2.81152,0-5.62305,0-8.45313
	C101.07666,9.52441,98.71387,9.52441,96.32227,9.52441z"/>
<path fill-rule="evenodd" clip-rule="evenodd" d="M66.25684,0c0.40527,0.05469,0.81006,0.1123,1.21533,0.16309
	c1.01563,0.12695,2.00635,0.35645,2.95703,0.74414c2.36914,0.96582,3.81104,2.71875,4.41211,5.18848
	c0.22949,0.94141,0.31787,1.89941,0.32275,2.86621c0.0083,1.66992,0.00391,3.34375-0.00684,5.01563
	c-0.00732,1.1084-0.09766,2.20605-0.39063,3.28223c-0.37451,1.375-1.12061,2.49414-2.25342,3.35938
	c-0.83887,0.64063-1.75391,1.14355-2.71338,1.57617c-0.16602,0.07422-0.33154,0.15039-0.5791,0.26367
	c0.18701,0.07129,0.30518,0.12012,0.42676,0.15918c1.35986,0.42773,2.56885,1.10938,3.57715,2.13086
	c1.07813,1.09082,1.68066,2.39355,1.80664,3.92676c0.16797,2.05176,0.12842,6.63965,0.12842,6.93066
	c1.06055-0.03613,2.08594-0.07227,3.14063-0.10742c0,3.19141,0,6.3584,0,9.56055c-0.12158,0.00879-6.88428,0.0293-10.14404,0.02539
	c-0.92334,0-1.83545-0.09277-2.73291-0.33105c-1.09912-0.29492-1.81836-0.96387-2.08105-2.07324
	c-0.13916-0.58984-0.24072-1.19238-0.30615-1.7959c-0.05615-0.51855-0.04785-1.04688-0.04834-1.57031
	c-0.00391-3.9541-0.00244-12.22754-0.00244-12.39648c-0.33789-0.09668-6.33398-0.12793-7.0415-0.04199
	c-0.04053,0.53516-0.01904,17.61035-0.01904,18.18652c-5.12305,0-10.20313,0-15.31104,0c0-3.17773,0-6.34473,0-9.56348
	c1.02051,0.03516,2.0332,0.07129,3.07715,0.1084c0.02051-0.09082,0.06299-25.84961,0.06299-26.06934
	c-1.05762-0.06543-2.08252,0.11621-3.16846,0.06445c0-0.1748-0.01025-9.44727-0.01514-9.60254C49.13281,0,57.69531,0,66.25684,0z
	 M55.95654,9.53125c0,2.99609,0,5.9502,0,8.91895c2.34863,0,4.66602,0,7.00586,0c0-2.98145,0-5.9375,0-8.91895
	C60.62256,9.53125,58.30518,9.53125,55.95654,9.53125z"/>
<path fill-rule="evenodd" clip-rule="evenodd" d="M37.6792,0c-0.00635,0.16895-0.01855,9.39063-0.01855,9.61621
	c-1.06543-0.03613-2.08936-0.07129-3.16943-0.10938c0,0.24121,0.00146,17.35645-0.00195,25.71777
	c-0.00049,1.13477-0.05566,2.2627-0.18555,3.39453c-0.39648,3.44434-3.14258,5.4873-5.56689,6.03809
	c-1.13818,0.25977-2.29102,0.39551-3.45361,0.41211c-1.71582,0.02539-9.625,0.01953-11.86475,0.01953
	c-1.33447,0-2.66504-0.05859-3.97607-0.32813c-3.08545-0.63281-4.99316-2.50391-5.79297-5.5332
	c-0.25098-0.9502-0.35791-1.9209-0.40527-2.89844C3.22656,35.96094,3.22998,9.7666,3.22998,9.54004
	C2.13623,9.47266,1.06836,9.63965,0,9.61035C0,6.40723,0,3.20313,0,0c5.13135,0,10.26318,0,15.39453,0
	c0,11.85742,0,23.71387,0,35.59473c2.32422,0,4.59717,0,6.92139,0c0-0.19141-0.021-35.44043-0.03223-35.59473
	C27.41602,0,32.54736,0,37.6792,0z"/>
<path fill-rule="evenodd" clip-rule="evenodd" d="M146.80273,0c0.39746,2.15723,6.53271,35.49316,6.56885,35.61035
	c0.96973-0.04199,1.9292-0.08398,2.88525-0.125c0.09863,0.29883,0.13525,8.85938,0.0415,9.5752c-4.58154,0-9.16699,0-13.81006,0
	c-0.4668-3.63379-0.93604-7.27734-1.40674-10.93945c-2.21045,0-4.38721,0-6.61426,0
	c-0.44678,3.63965-0.89307,7.27637-1.34277,10.93848c-4.64844,0-9.27344,0-13.92676,0c0-3.17773,0-6.3457,0-9.57324
	c0.49219,0.02148,2.45313,0.06152,2.99268,0.06152C124.29541,23.72168,126.40576,11.86035,128.5166,0
	C134.61182,0,140.70752,0,146.80273,0z M137.77539,8.90234c-0.02783-0.00293-0.05615-0.00586-0.08398-0.00879
	c-0.82227,5.77734-1.64404,11.55566-2.46631,17.33301c0.63281,0.09473,4.83252,0.06445,5.15576-0.03906
	C139.51318,20.42969,138.64453,14.66602,137.77539,8.90234z"/>
<path fill-rule="evenodd" clip-rule="evenodd" d="M199.88525,76.3584c-0.10303,0.53906-0.15039,1.09766-0.31348,1.62012
	c-0.64648,2.07129-2.11865,3.25098-4.18555,3.75391c-0.77393,0.18848-1.56152,0.27246-2.35889,0.27246
	c-5.00342,0-15.25879-0.01758-15.40723-0.02539c0-3.43066,0-6.83984,0-10.27734c2.78516,0,5.55469,0,8.37646,0
	c0,1.06055,0,2.11523,0,3.19531c1.71484,0,3.37988,0,5.07373,0c0-2.1875,0.01611-4.37988,0.01611-6.60352
	c-0.14795-0.00781-4.54541-0.00391-6.58643-0.00586c-0.9082-0.00195-1.81592-0.03418-2.70703-0.22559
	c-2.2251-0.47754-3.60645-1.84961-4.19531-4.03223c-0.24121-0.89453-0.31982-1.81543-0.3291-2.7373
	c-0.01807-1.87012-0.02246-3.74121,0.00146-5.6123c0.01465-1.14941,0.1582-2.28613,0.45947-3.40234
	c0.53174-1.97168,1.80127-3.1543,3.76953-3.62402c0.88672-0.21191,1.78613-0.32617,2.69434-0.32813
	c4.81982-0.00977,14.65088-0.0127,14.77783-0.00293c0,3.28027,0.00244,6.56445,0.00244,9.83008
	c-0.30811,0.08398-7.16895,0.11328-7.86523,0.02539c-0.02393-0.89844,0.00586-1.8125-0.0166-2.75098c-1.7002,0-3.36475,0-5.05811,0
	c0,2.03418,0,4.05273,0,6.10254c0.13086,0.00977,0.25439,0.02344,0.37793,0.02344c2.09766,0,4.1958,0.00293,6.29346-0.00488
	c1.12451-0.00391,2.23633,0.07715,3.31445,0.42773c2.30273,0.74805,3.72607,2.59766,3.86377,5.0166
	c0.00879,0.15234,0.05127,0.30273,0.07813,0.4541C199.96143,70.31055,199.90576,76.25098,199.88525,76.3584z"/>
<path fill-rule="evenodd" clip-rule="evenodd" d="M79.66699,74.83008c0,2.42578,0,4.77344,0,7.14648c-3.4751,0-6.92676,0-10.43799,0
	c-0.35303-2.71094-0.70703-5.4248-1.06396-8.16309c-1.6709,0-3.30762,0-4.9917,0c-0.33789,2.7207-0.6748,5.42773-1.01465,8.16016
	c-3.50146,0-6.98242,0-10.46338,0c-0.08398-0.30078-0.11572-6.3291-0.0332-7.11035c0.72314-0.06934,1.45166,0.05762,2.23486,0.05371
	c1.59375-8.86621,3.18555-17.72168,4.77881-26.58301c4.61768,0,9.19385,0,13.81689,0
	c1.64014,8.85352,3.2793,17.70313,4.92383,26.58203C78.17725,74.88672,78.90674,74.85938,79.66699,74.83008z M67.60791,67.92285
	c0-0.12402-1.96631-12.85938-1.979-12.86328c-0.00684-0.00293-1.86133,12.47266-1.80762,12.86328
	C65.07275,67.92285,66.32666,67.92285,67.60791,67.92285z"/>
<path fill-rule="evenodd" clip-rule="evenodd" d="M82.00586,81.98535c0-3.45313,0-6.8623,0-10.28809c2.7959,0,5.56445,0,8.37305,0
	c0,1.07227,0,2.11621,0,3.14844c0.33398,0.0957,4.49268,0.11816,5.02588,0.03809c0.08154-0.30762,0.11279-5.83887,0.03125-6.57617
	c-0.14111-0.00684-4.69189-0.00293-6.81787-0.0293c-0.77637-0.00977-1.5625-0.05859-2.32568-0.19434
	c-2.29932-0.41211-3.91309-2.00781-4.36963-4.30762c-0.14551-0.73242-0.24414-1.48633-0.25684-2.23242
	c-0.03369-2.04102-0.03027-4.08105-0.00293-6.12207c0.01563-1.20605,0.19141-2.39844,0.57715-3.55176
	c0.51807-1.55176,1.55371-2.56348,3.11084-3.06055c1.1748-0.37402,2.38379-0.4873,3.60645-0.48828
	c4.19482-0.00488,8.39014-0.00195,12.58545-0.00195c0.45361,0,0.90723-0.00098,1.36035,0.00098
	c0.13867,0,0.27637,0.01074,0.43848,0.01855c0,3.2959,0,6.5625,0,9.85645c-2.61719,0-5.2168,0-7.86377,0
	c0-0.92383,0-1.82324,0-2.70898c-0.3418-0.10449-4.52148-0.12793-5.06055-0.03809c0,2.01465,0,4.0332,0,6.08301
	c0.1333,0.00879,4.57568,0.02246,6.67383,0.0166c1.0376-0.00195,2.06445,0.07031,3.07031,0.35449
	c2.25781,0.64355,3.57959,2.13867,4.01563,4.42285c0.11377,0.59473,0.17041,1.20898,0.17529,1.81543
	c0.02002,2.38086,0.02539,4.76172-0.00195,7.1416c-0.0083,0.68945-0.09082,1.3877-0.23193,2.06445
	c-0.50195,2.37891-1.99707,3.80664-4.3335,4.38184c-0.77344,0.19043-1.56152,0.27637-2.3584,0.27637
	C92.40967,82.00488,82.15234,81.99121,82.00586,81.98535z"/>
<path fill-rule="evenodd" clip-rule="evenodd" d="M117.60693,71.73828c0,1.03516,0,2.0791,0,3.15527c1.70117,0,3.36572,0,5.02979,0
	c0.08496-0.32813,0.09375-6.17578,0.00146-6.60449c-0.14453,0-0.29785,0-0.45068,0c-2.1123-0.00098-4.22412,0.01563-6.33594-0.01074
	c-0.77686-0.00977-1.56348-0.05762-2.32666-0.19336c-2.31592-0.41211-3.93506-2.02148-4.38525-4.3418
	c-0.14258-0.73535-0.24023-1.48828-0.25244-2.23438c-0.03369-2.02637-0.02979-4.05371-0.00293-6.08105
	c0.01514-1.10645,0.15967-2.2041,0.49072-3.26855c0.0752-0.24219,0.16211-0.48242,0.25879-0.71875
	c0.47461-1.16113,1.30127-1.97266,2.45898-2.4502c0.79346-0.3291,1.62305-0.50879,2.47217-0.58203
	c0.63428-0.05664,1.27344-0.08496,1.91016-0.08594c4.52197-0.00684,13.89893-0.00293,14.09277-0.00293
	c0,3.31348,0,6.58008,0,9.87402c-2.61963,0-5.21973,0-7.86377,0c0-0.92383,0-1.82617,0-2.71484
	c-0.34717-0.0957-4.5332-0.11719-5.06152-0.03125c0,2.01465,0,4.0332,0,6.08398c0.13037,0.00879,4.57324,0.02246,6.6709,0.0166
	c1.03809-0.00293,2.06543,0.07031,3.0708,0.35645c2.25781,0.6416,3.58105,2.13672,4.01563,4.4209
	c0.11084,0.58301,0.16895,1.18066,0.17383,1.77344c0.01904,2.40918,0.00928,4.81934,0.00928,7.22852
	c-0.00049,0.76758-0.09033,1.52734-0.28564,2.27051c-0.58887,2.24902-2.06104,3.58691-4.29102,4.13184
	c-0.75977,0.18457-1.5332,0.27539-2.31592,0.27539c-5.03174,0-15.31836-0.01563-15.45801-0.02246
	c0-3.42383,0-6.83203,0.00049-10.24023C109.55176,71.64746,117.17188,71.63574,117.60693,71.73828z"/>
<path fill-rule="evenodd" clip-rule="evenodd" d="M160.51367,55.42773c0,6.50195,0,12.97363,0,19.47266
	c1.7041,0,3.38477,0,5.12695,0c0.03711-0.88379,0.01709-4.40625,0.01709-5.30469c2.64697,0,5.24951,0,7.88232,0
	c0,4.12402,0,8.23926,0,12.38672c-0.15234,0.00684-10.06689,0.02051-14.88672,0.02246c-1.01172,0-2.00684-0.11035-2.97656-0.41602
	c-2.04736-0.64551-3.29932-2.0332-3.75635-4.11523c-0.15674-0.71387-0.24512-1.45898-0.24707-2.18945
	c-0.01855-6.37891-0.01855-12.75781,0.00098-19.13672c0.00293-0.93066,0.08545-1.86914,0.22266-2.79102
	c0.35791-2.41406,1.80713-3.89941,4.09424-4.61133c1.05078-0.32617,2.13672-0.4248,3.2334-0.4248
	c3.99707-0.00195,13.29443-0.00098,13.93848-0.00098c0.10547,0.3252,0.15088,9.69434,0.05957,10.71094
	c-0.2915,0.09375-6.77002,0.13184-7.55811,0.03516c0-1.19922,0-2.40527,0-3.6377
	C163.91016,55.42773,162.21875,55.42773,160.51367,55.42773z"/>
<path fill-rule="evenodd" clip-rule="evenodd" d="M21.99658,69.62207c0,4.10059,0,8.20508,0,12.36035
	c-0.16309,0.00684-9.646,0.02441-14.22412,0.0166c-0.7207-0.00391-1.44482-0.0293-2.16309-0.09961
	c-0.90869-0.08887-1.77832-0.34668-2.58301-0.79102c-1.54004-0.84961-2.36084-2.20703-2.67236-3.8877
	c-0.12305-0.66699-0.18213-1.35254-0.18311-2.0293c-0.01318-6.19336-0.00635-12.38672-0.00684-18.58008
	c-0.00049-0.99414,0.04199-1.98145,0.16309-2.96875c0.3457-2.83301,2.16113-4.39453,4.44238-4.98242
	c0.98047-0.25195,1.97998-0.3418,2.98975-0.34082c4.20996,0.00098,8.41943,0,12.62939,0c0.40967,0,0.81982,0,1.20361,0
	c0.03662,0.03223,0.04785,0.04004,0.05762,0.05078c0.00928,0.00977,0.02246,0.02051,0.02393,0.03223
	c0.00879,0.08496,0.021,0.16895,0.021,0.25293c0,3.42969-0.00146,6.86035-0.00439,10.29004
	c0,0.03906-0.02344,0.07617-0.04248,0.1377c-2.48877,0-4.97656,0-7.50879,0c0-1.20801,0-2.40527,0-3.58789
	c-0.32666-0.11328-4.50488-0.14648-5.11084-0.05664c-0.09033,0.3125-0.10449,19.02734-0.01025,19.46387
	c1.67529,0,3.35596,0,5.09961,0c0.00488-0.88281,0.00195-4.38184,0.00195-5.25195
	C14.4375,69.55078,21.48877,69.52832,21.99658,69.62207z"/>
<path fill-rule="evenodd" clip-rule="evenodd" d="M27.93359,55.4209c-0.76221,0.02441-1.50635,0.04688-2.27881,0.07129
	c0-2.38574,0-4.74512,0-7.10156c0.31104-0.08984,12.60889-0.12891,13.4585-0.0459c0.09033,0.29785,0.11084,6.63965,0.0166,7.14648
	c-0.72363-0.02344-1.45361-0.0459-2.17871-0.06934c-0.09277,0.3584-0.09766,19.08105-0.00586,19.48047
	c1.27979,0,2.56494,0,3.90723,0c0.0498-0.96875,0.02295-4.83398,0.02295-5.78711c0.32715-0.09961,7.51318-0.13672,8.29443-0.05273
	c0.09082,0.29004,0.11816,12.33887,0.02441,12.91406c-7.83789,0-15.67969,0-23.54297,0c0-2.38379,0-4.74414,0-7.14746
	c0.771,0.0293,1.51416,0.05664,2.28223,0.08594C27.93359,68.40527,27.93359,61.93652,27.93359,55.4209z"/>
<path fill-rule="evenodd" clip-rule="evenodd" d="M134.94727,48.34277c4.4668,0,8.93896,0,13.40869,0
	c0.0874,0.31152,0.10596,6.63477,0.01807,7.14746c-0.65186-0.02246-1.31006-0.04492-1.99121-0.06836
	c0,6.50293,0,12.97168,0,19.48926c0.6709-0.02539,1.32813-0.05176,2.01465-0.0791c0,2.39355,0,4.75293,0,7.13965
	c-4.48779,0-8.97021,0-13.47852,0c0-2.37012,0-4.72852,0-7.13965c0.77441,0.02832,1.53125,0.05566,2.31543,0.08398
	c0-6.50098,0-12.9707,0-19.49609c-0.76172,0.02344-1.51855,0.04785-2.27197,0.07129
	C134.875,55.16699,134.86035,48.80371,134.94727,48.34277z"/>
<g>
</g>
<g>
</g>
<g>
</g>
<g>
</g>
<g>
</g>
<g>
</g>
</svg>
