<?xml version="1.0" encoding="utf-8"?>
<!-- Generator: Adobe Illustrator 16.0.3, SVG Export Plug-In . SVG Version: 6.00 Build 0)  -->
<!DOCTYPE svg PUBLIC "-//W3C//DTD SVG 1.1//EN" "http://www.w3.org/Graphics/SVG/1.1/DTD/svg11.dtd">
<svg version="1.1" id="Layer_1" xmlns="http://www.w3.org/2000/svg" xmlns:xlink="http://www.w3.org/1999/xlink" x="0px" y="0px"
	 width="433.98047px" height="383.92188px" viewBox="0 0.00024 433.98047 383.92188"
	 enable-background="new 0 0.00024 433.98047 383.92188" xml:space="preserve">
<path fill="#FFFFFF" d="M306.10938,340.85962c-0.19727,0.21387-0.39453,0.42773-0.5918,0.6416
	c-3.08008,3.33008-6.24023,6.58594-9.14063,9.43555c-2.88867,2.84766-5.5293,5.29102-8.22852,7.64453
	c-5.4707,4.73438-10.89063,8.86133-16.21094,12.32422c-6.16992,4.07422-12.73047,7.57422-19.17969,10.05859
	c-1.10938,0.42969-2.2207,0.83984-3.57031,1.25391c-1.33984,0.41406-2.92969,0.83594-4.5293,1.13672
	c-6.49023,1.16016-13.74023,0.89648-20.77148-0.70313c-8.85986-1.88477-18.07861-4.70703-26.99854-8.61914
	c-1.79248-0.74707-3.57666-1.60645-5.33545-2.44629c0,0-49.17432-350.74512-40.96191-352.45801
	c2.43311-0.50684,4.86572-1.02197,7.29736-1.55957c9.67969-1.85742,19.33984-4.08887,29.01953-5.64844
	c25.58984-4.19336,51.20947-6.7998,76.84033-9.05078c1.01367-0.09131,2.02734-0.18164,3.04102-0.27051L306.10938,340.85962z"/>
<path fill="#B53227" d="M266.78906,2.58911l39.32031,338.27051c6.67969-7.23828,12.66992-14.51367,18.2793-21.83594
	c4.66992-6.17773,9.3418-12.35547,13.80078-18.68164c4.44922-6.32813,8.69922-12.80078,12.93945-19.27734
	c4.35156-6.91406,8.70117-13.82813,12.87109-20.85352c4.16016-7.02344,8.13867-14.1582,12.11914-21.29199
	c21.75-40.11035,38.28125-79.8916,48.99023-120.00879c4.92969-19.53711,8.83984-39.11816,8.87109-58.71387
	c-0.14063-9.55957-0.05078-19.14941-3.91016-28.82031c-0.5-1.32813-1.07031-2.63477-1.53125-3.62207
	c-0.87891-1.84766-1.53906-2.86523-2.51953-4.20996c-1.83984-2.43359-3.66016-4.74219-6.00977-7.18359
	c-2.23047-2.10645-4.68945-2.97461-7.04102-4.24414c-7.41992-3.94727-14.87891-5.71191-22.36914-7.08398
	C369,1.01978,347.26953,0.47778,325.57031,0.08813C305.98047,0.26685,286.37891,0.74341,266.78906,2.58911"/>
<path fill="#006EAC" d="M150.58936,19.11353c-22.27979,4.21875-44.72461,10.69141-67.04492,17.91504
	c-19.50879,6.61719-39.58789,15.40723-59.13672,27.83398c-3.78516,2.47168-7.55029,5.52051-11.24902,9.10156
	c-2.83936,2.74512-4.2002,5.80566-6.25439,8.74023c-0.3877,0.62012-0.75488,1.25391-1.10498,1.89648
	c-0.34863,0.64355-0.67969,1.29785-1.18457,2.45117c-0.50537,1.15527-1.18408,2.81055-1.77344,4.49805
	c-0.58887,1.6875-1.08887,3.40723-1.51758,5.3418c-0.4292,1.93555-0.78711,4.08789-1.01025,6.25098
	c-0.85791,9.10547,0.22607,18.875,2.41797,28.51953c1.1543,5.04492,2.62305,10.41211,4.36084,15.99023
	c0.9043,2.87109,1.88232,5.72168,3.12305,8.98438c2.48096,6.53125,5.83496,14.25488,9.35596,21.38281
	c16.75537,33.80664,38.68115,67.49414,66.73438,101.5293c7.21973,8.59961,14.39209,17.04883,22.48975,25.55664
	c4.72021,4.91406,9.44092,9.83008,14.3042,14.60156c4.85986,4.76953,9.87012,9.39453,14.87012,14.02148
	c14.07959,12.69531,28.54932,23.41602,42.79932,32.12695c3.58008,2.15625,7.18066,4.01953,10.79102,5.75977L150.58936,19.11353"/>
<path fill="#575858" d="M292.5293,10.68677c-19.51953,0.82031-39.03906,2.87695-58.54883,4.86621
	c-21.69092,2.41699-43.41064,5.03711-65.10107,9.79688c-11.12988,2.1748-22.2002,4.52148-33.35986,6.99414
	c-14.10303,3.38086-28.16211,7.41016-42.31104,11.84375c-8.80615,2.75977-17.58887,5.91504-26.23779,9.59473
	c-4.41211,1.85449-8.77832,3.82227-12.75635,5.73145c-3.97803,1.91113-7.56982,3.7666-11.11572,5.70215
	c-4.47217,2.44043-8.81201,4.9082-13.16602,7.75195c-1.96826,1.25586-3.88721,2.70898-5.73096,4.28027
	c-1.02295,0.85254-2.02393,1.7334-2.68115,2.32324c-1.14209,1.02637-1.5,1.41406-2.10791,2.08398
	c-1.69385,2.13477-2.72607,4.19434-4.16113,6.27539c-0.21875,0.3584-0.42871,0.7207-0.63477,1.08496
	c-0.20508,0.36523-0.40625,0.7334-0.79932,1.6123c-0.39209,0.87891-0.97607,2.26953-1.48291,3.6875
	c-1.0752,2.97754-1.78174,6.22852-2.14307,9.61328c-0.58008,5.68359-0.12598,12.25391,0.88623,18.60449
	c0.36182,2.23047,0.81299,4.49805,1.32275,6.75c1.06299,4.64844,2.41992,9.62109,4.01709,14.80273
	c0.83301,2.67773,1.73291,5.33496,2.91797,8.46875c2.37695,6.25977,5.63525,13.93359,9.1333,20.92383
	c6.83594,14.01172,14.76855,27.7832,23.45166,41.73535c3.10498,4.93164,6.21826,9.86719,9.57715,14.63281
	c6.6709,10,13.8501,19.65332,21.21289,29.13965c7.36328,9.48633,14.9541,18.81641,22.96387,27.7793
	c8.3623,9.61719,17.32324,18.83594,26.98535,28.24805c9.63965,9.29102,18.75977,17.60547,28.33984,24.92383
	c9.66016,7.38086,19.83008,14.68945,29.51953,19.86328c3.33984,1.83594,6.81055,3.43945,10.30078,4.94531
	c9.5,4.14063,19.50049,7.16016,29.28955,8.77148c1.48047,0.25586,2.9707,0.41406,4.4707,0.46484
	c2.83984,0.06836,5.59961-0.09375,8.17969-0.54492c5.83984-1.19531,10.73047-3.59766,16.15039-6.46289
	c5.29883-2.87695,10.07031-6.05078,15.0293-9.80273c2.51953-1.91797,5.14063-4.04883,7.68945-6.26367
	c2.55078-2.21484,5.03125-4.51367,7.79102-7.23242c2.76953-2.71875,5.82031-5.86133,8.78906-9.07422
	c13.89063-15.03516,25.56055-31,36.2207-46.4707c19.25977-28.51367,35.5-57.14258,49-85.69238
	c6.64063-14.02832,12.57031-28.01367,17.90039-42.25879c7.32031-19.48438,13.66016-39.50684,17.74023-59.26367
	c1.05859-5.1416,1.98828-10.31152,2.66992-14.49121c0.66992-4.17871,1.08984-7.36816,1.41992-10.56543
	c1.11914-10.34473,1.16992-20.75879,0.14844-31.15625C422.87891,41.26392,422,38.12231,420.75,34.71118
	c-0.44141-1.13281-0.92969-2.24512-1.25977-2.95215c-0.33984-0.70703-0.52148-1.00879-0.71094-1.31055
	c-0.17969-0.30078-0.36914-0.60352-0.84961-1.26074c-0.49023-0.65723-1.2793-1.67188-2.08984-2.66309
	c-0.82031-0.99316-1.66016-1.96582-2.13086-2.49902c-0.88867-0.99219-0.74023-0.72656-1.04883-0.9873
	c-2.27148-1.29004-4.52148-2.38281-6.77148-3.48047c-2.31836-1.05664-4.54883-1.90234-6.51953-2.47266
	c-10.13867-2.84668-20.23047-4.08691-30.43945-5.20898c-16.55078-1.58496-33.2207-1.99902-49.83008-1.95215
	C310.24023,10.08911,301.37891,10.28735,292.5293,10.68677"/>
<path fill="#FFFFFF" d="M190.84912,162.36938v7.19531c17.66016,0,35.31104,0.00195,52.97119,0.00391l-0.79102-0.00391v-7.19531
	C225.63867,162.38403,208.23975,162.38403,190.84912,162.36938"/>
<path fill="#006EAC" d="M108.31543,137.42896v-7.12402c6.89209-0.9209,13.97412,0.12402,21.18408,5.00195
	c1.00977,0.70801,1.97998,1.48242,2.8501,2.25977c5.40967,4.80762,7.06006,10.10156,11.87012,15.29297
	c2.84033,3.15137,5.98975,5.2793,9.02002,6.72754c4.07031,1.9248,8.20996,2.78906,12.38965,2.80273
	c8.39941-0.02246,16.80957-0.02832,25.21973-0.02051v7.19531c-9.72949,0.06152-19.45898,0.04102-29.18945-0.06055
	c-4.26953-0.65918-8.56055-2.01563-12.86035-4.39258c-2.69043-1.49219-4.95996-3.16211-7.27002-5.19043
	c-5.05957-4.78711-7.61963-9.85645-11.06982-14.87988c-1.31006-1.75391-3.47998-3.76367-5.45996-4.98828
	C119.59766,136.72681,113.99268,136.03345,108.31543,137.42896"/>
<path fill="#B53227" d="M325.67969,137.42896c-6.06055-1.42676-12.2793-0.86816-18.68945,4.07031
	c-1.38086,1.125-2.52148,2.31348-3.46094,3.54199c-0.5,0.65625-0.95898,1.34668-1.79883,2.69727
	c-0.8418,1.35059-2.07031,3.36133-3.42188,5.29102c-1.35938,1.92773-2.82813,3.77344-4.08984,5.1416
	c-2.55859,2.7334-4.42969,3.9873-6.67969,5.53027c-4.98047,3.22754-10.07031,5.00586-15.19922,5.80273
	c-9.76953,0.10156-19.54102,0.12207-29.31055,0.06055v-7.19531c9.16016-0.03809,18.31055,0.09766,27.4707-0.06055
	c5.68945-0.49414,11.5-2.2959,17.30859-7.46387c0.54102-0.47266,1.06055-0.95605,1.9707-1.98535
	c0.90039-1.0293,2.18945-2.60547,3.38086-4.25391c1.18945-1.64941,2.26953-3.36914,3.07031-4.58398
	c0.78906-1.21484,1.28906-1.92285,1.81836-2.60547c1.46094-1.90039,3.58008-3.99609,5.55078-5.45605
	c7.17969-5.2666,14.59961-6.65332,22.08008-5.65527V137.42896"/>
<path fill="#FFFFFF" d="M209.57959,139.46704c-0.00977,1.0918-0.25,2.20703-1,3.24121
	c-0.82031,1.10059-1.80078,1.78809-2.81055,2.24707c-1.20898,0.56445-2.75,0.83008-4.2793,0.82813h-26.54004
	c-0.82031,0-1.62988-0.07422-2.36035-0.2168c-1.29004-0.26563-2.41016-0.70117-3.50977-1.55957
	c-1.76953-1.43848-2.2207-2.91602-2.25-4.54004V116.8147h10.12988v21.94336h22.45996v-82.2002h10.16016V139.46704z"/>
<polygon fill="#FFFFFF" points="267.16016,63.58423 249.51953,63.58423 249.51953,145.78345 239.38867,145.78345 
	239.38867,63.58423 221.58984,63.58423 221.58984,56.55786 267.16016,56.55786 "/>
<path fill="#FFFFFF" d="M158.82959,185.2854l-19.72021,89.22656h-9.52979l-19.72412-89.22656h10.04883l14.09521,70.86523
	c0.16016,1.93555,0.31006,3.87305,0.45996,5.8125c0.02002-0.39453,0.04004-0.78711,0.08008-1.28711
	c0.06982-1.11133,0.22998-2.82813,0.41016-4.52539l14.09961-70.86523H158.82959z"/>
<polygon fill="#FFFFFF" points="209.9292,274.29517 172.52881,274.29517 172.52881,185.2854 209.49951,185.2854 
	209.49951,192.29517 182.65967,192.29517 182.65967,225.51196 207.07959,225.51196 207.07959,232.60083 182.65967,232.60083 
	182.65967,267.28735 209.9292,267.28735 "/>
<polygon fill="#FFFFFF" points="262.16992,274.29517 225.7793,274.29517 225.7793,185.2854 235.91016,185.2854 235.91016,267.28735 
	262.16992,267.28735 "/>
<path fill="#FFFFFF" d="M314.03906,267.28735v-74.99219h-27.86914v74.99219H314.03906z M324.13867,267.99438
	c-0.00977,1.08789-0.25,2.19922-1,3.23047c-0.83008,1.09766-1.83984,1.78906-2.85938,2.24609
	c-1.23047,0.5625-2.75977,0.82422-4.28906,0.82422h-31.88086c-1.95898-0.03125-3.87891-0.30469-5.82031-1.77148
	c-1.7793-1.4375-2.21875-2.9082-2.25-4.5293v-76.37891c0-1.09961,0.25-2.22461,1-3.26367
	c0.80078-1.09961,1.81055-1.78711,2.83008-2.24609c1.23047-0.55859,2.73047-0.82031,4.24023-0.82031h31.88086
	c0.80859,0,1.61914,0.07422,2.34961,0.2168c1.29883,0.26367,2.41992,0.70117,3.5293,1.55566
	c1.79102,1.44531,2.24023,2.9248,2.26953,4.55762V267.99438z"/>
</svg>
