<?xml version="1.0" encoding="utf-8"?>
<!-- Generator: Adobe Illustrator 16.0.3, SVG Export Plug-In . SVG Version: 6.00 Build 0)  -->
<!DOCTYPE svg PUBLIC "-//W3C//DTD SVG 1.1//EN" "http://www.w3.org/Graphics/SVG/1.1/DTD/svg11.dtd">
<svg version="1.1" id="Layer_2" xmlns="http://www.w3.org/2000/svg" xmlns:xlink="http://www.w3.org/1999/xlink" x="0px" y="0px"
	 width="16.94775px" height="17.31152px" viewBox="0 0 16.94775 17.31152" enable-background="new 0 0 16.94775 17.31152"
	 xml:space="preserve">
<path fill="#FFFFFF" d="M16.50781,14.75098l-3.33398-3.33447C14.00586,10.23633,14.5,8.80078,14.5,7.25
	C14.5,3.25244,11.24805,0,7.25,0S0,3.25244,0,7.25s3.25195,7.25,7.25,7.25c1.3623,0,2.63379-0.38477,3.72363-1.04102
	l3.41309,3.41309c0.29297,0.29297,0.67773,0.43945,1.06055,0.43945c0.38477,0,0.76855-0.14648,1.06055-0.43945
	C17.09375,16.28613,17.09375,15.33691,16.50781,14.75098z M3,7.25C3,4.90674,4.90625,3,7.25,3s4.25,1.90674,4.25,4.25
	S9.59375,11.5,7.25,11.5S3,9.59326,3,7.25z"/>
</svg>
