<?xml version="1.0" encoding="utf-8"?>
<!-- Generator: Adobe Illustrator 16.0.3, SVG Export Plug-In . SVG Version: 6.00 Build 0)  -->
<!DOCTYPE svg PUBLIC "-//W3C//DTD SVG 1.1//EN" "http://www.w3.org/Graphics/SVG/1.1/DTD/svg11.dtd">
<svg version="1.1" id="Layer_1" xmlns="http://www.w3.org/2000/svg" xmlns:xlink="http://www.w3.org/1999/xlink" x="0px" y="0px"
	 width="40px" height="40px" viewBox="0 0 40 40" enable-background="new 0 0 40 40" xml:space="preserve">
<path fill="#FFFFFF" d="M20.05029,39.96582c-11.01807,0-19.98291-8.96289-19.98291-19.98193S9.03223,0,20.05029,0
	C31.07031,0,40.0332,8.96484,40.0332,19.98389S31.07031,39.96582,20.05029,39.96582z M20.05029,2.31104
	c-9.74414,0-17.67188,7.92822-17.67188,17.67285s7.92773,17.67139,17.67188,17.67139c9.74365,0,17.67236-7.92676,17.67236-17.67139
	S29.79395,2.31104,20.05029,2.31104z"/>
<rect x="12.39962" y="19.58599" transform="matrix(0.70711 -0.70711 0.70711 0.70711 -7.93316 22.33155)" fill="#FFFFFF" width="21.18075" height="2.31191"/>
<rect x="8.70569" y="23.58282" transform="matrix(-0.70716 -0.70706 0.70706 -0.70716 5.80078 51.88007)" fill="#FFFFFF" width="9.87671" height="2.31191"/>
<g>
</g>
<g>
</g>
<g>
</g>
<g>
</g>
<g>
</g>
<g>
</g>
</svg>
