<?xml version="1.0" encoding="utf-8"?>
<!-- Generator: Adobe Illustrator 16.0.3, SVG Export Plug-In . SVG Version: 6.00 Build 0)  -->
<!DOCTYPE svg PUBLIC "-//W3C//DTD SVG 1.1//EN" "http://www.w3.org/Graphics/SVG/1.1/DTD/svg11.dtd">
<svg version="1.1" id="Layer_1" xmlns="http://www.w3.org/2000/svg" xmlns:xlink="http://www.w3.org/1999/xlink" x="0px" y="0px"
	 width="40px" height="40px" viewBox="0 0 40 40" enable-background="new 0 0 40 40" xml:space="preserve">
<path fill="#FFFFFF" d="M20.05029,39.96582c-11.01807,0-19.98291-8.96289-19.98291-19.98193S9.03223,0,20.05029,0
	C31.07031,0,40.0332,8.96484,40.0332,19.98389S31.07031,39.96582,20.05029,39.96582z M20.05029,2.31104
	c-9.74414,0-17.67188,7.92822-17.67188,17.67285s7.92773,17.67139,17.67188,17.67139c9.74365,0,17.67236-7.92676,17.67236-17.67139
	S29.79395,2.31104,20.05029,2.31104z"/>
<g>
	<path fill="#FFFFFF" d="M18.29395,28.64453c0-1.2832,0.56641-1.92578,1.69922-1.92578c0.54688,0,0.96973,0.16602,1.2666,0.49609
		s0.44629,0.80664,0.44629,1.42969c0,0.60547-0.15137,1.07422-0.45313,1.41016c-0.30176,0.33398-0.72168,0.50195-1.25977,0.50195
		c-0.49121,0-0.89746-0.14844-1.21875-0.44531C18.4541,29.8125,18.29395,29.32422,18.29395,28.64453z M20.75781,24.43945h-1.4873
		L18.54785,9.44385h2.93164L20.75781,24.43945z"/>
</g>
<g>
</g>
<g>
</g>
<g>
</g>
<g>
</g>
<g>
</g>
<g>
</g>
</svg>
